# xmcd CD database file
#
# Track frame offsets:
#	150
#	19847
#	34147
#
# Disc length: 715 seconds
#
# Revision: 0
# Processed by: cddbd v1.5PL3 Copyright (c) Steve Scherf et al.
# Submitted via: CDex 1.50beta10
#
DISCID=1c02c903
DTITLE=藤本美貴 - ブギートレイン'03
DYEAR=2003
DGENRE=JPop
TTITLE0=ブギートレイン'03
TTITLE1=大切
TTITLE2=ブギートレイン'03 (Instrumental)
EXTD=YEAR: 2003
EXTT0=
EXTT1=
EXTT2=
PLAYORDER=
